<svg width="1351" height="380" viewBox="0 0 1351 380" fill="none" xmlns="http://www.w3.org/2000/svg">
<path d="M1166.5 108L1060.5 2H1136L1204 68L1274 2H1349.5L1243.5 108L1349.5 214.5H1274L1204 146L1136 214.5H1059L1166.5 108Z" fill="black" stroke="black"/>
<path d="M78 214.5H1.5L209.107 7.38589C211.013 5.4845 213.308 4.0181 215.834 3.0874C219.517 1.73045 223.535 1.56971 227.314 2.62805L228.371 2.92383C232.06 3.95676 235.416 5.93314 238.109 8.65819L441.5 214.5H113.5L168.5 160.5H314.5L221.5 69L78 214.5Z" fill="black" stroke="black"/>
<path d="M449 215.5H501.5V134H681C690.827 134 700.48 131.413 708.99 126.499L712.346 124.561C724.772 117.385 734.505 106.335 740.054 93.1026L740.911 91.0581C747.35 75.7028 747.176 58.3723 740.43 43.1494C734.662 30.1348 724.49 19.571 711.702 13.3162L703.372 9.24159C691.613 3.4899 678.695 0.5 665.605 0.5H501.5L449 56.5H678.335C680.09 56.5 681.824 56.8846 683.415 57.6269C692.057 61.6598 692.778 73.6714 684.681 78.7097L684.017 79.123C682.045 80.3498 679.769 81 677.447 81H449V215.5Z" fill="black" stroke="black"/>
<path d="M758.5 2V54H1001L1055 2H758.5Z" fill="black" stroke="black"/>
<path d="M758.5 214.5V82.5H1055V135H812V160.5H1055V214.5H758.5Z" fill="black" stroke="black"/>
<path d="M1153 321L1082 250.5H1127L1168.5 292L1209.5 250.5H1255.5L1185 321V378H1153V321Z" fill="black" stroke="black"/>
<path d="M842.553 377.24L794.051 326.548H839.111L889.803 377.24H842.553Z" fill="black" stroke="black"/>
<path d="M708 377.553H740.856V326.548H853.192C859.342 326.548 865.383 324.929 870.709 321.854L872.809 320.641C880.586 316.15 886.677 309.235 890.15 300.953L890.686 299.674C894.716 290.064 894.607 279.218 890.385 269.691C886.775 261.546 880.409 254.935 872.406 251.021L867.193 248.471C859.834 244.871 851.75 243 843.557 243H740.856L708 278.046H851.524C852.623 278.046 853.708 278.287 854.703 278.752C860.112 281.276 860.563 288.793 855.496 291.946L855.08 292.204C853.846 292.972 852.422 293.379 850.969 293.379H708V377.553Z" fill="black" stroke="black"/>
<path d="M522 250V281.078H666.929L699.202 250H522Z" fill="black" stroke="black"/>
<path d="M522 377V298.111H699.202V329.487H553.974V344.727H699.202V377H522Z" fill="black" stroke="black"/>
<path d="M132 252V283.078H276.929L309.202 252H132Z" fill="black" stroke="black"/>
<path d="M132 379V300.111H309.202V331.487H163.974V346.727H309.202V379H132Z" fill="black" stroke="black"/>
<path d="M363.5 379V298L477.5 363.5L486.882 367.83C489.266 368.93 491.86 369.5 494.485 369.5H497.274C500.3 369.5 503.202 368.298 505.342 366.158C507.068 364.432 508.195 362.197 508.558 359.783L511 343.5V251.5H477.5V325.5L357.111 254.25C355.706 253.418 354.242 252.688 352.731 252.066L349.777 250.849C347.613 249.958 345.296 249.5 342.956 249.5H338.5C335.667 249.5 333 250.834 331.3 253.1C330.132 254.658 329.5 256.553 329.5 258.5V379H363.5Z" fill="black" stroke="black"/>
<path d="M966.5 331L998.5 299.5H1080V378.5H961L949.829 375.308C938.8 372.157 928.781 366.189 920.758 357.992L919.895 357.11C913.385 350.459 908.49 342.402 905.587 333.56L905.401 332.995C901.255 320.368 901.489 306.713 906.064 294.235C908.664 287.144 912.6 280.618 917.658 275.009L919.269 273.224C928.242 263.275 939.831 256.048 952.713 252.368L961 250H1080L1047 283.5L982.285 282.294C971.791 282.099 961.305 283.006 951 285L944.231 290.467C940.142 293.77 936.941 298.041 934.919 302.893L934.727 303.356C931.996 309.909 931.66 317.214 933.778 323.989C936.453 332.55 942.793 339.48 951.083 342.904L954.157 344.174C958.675 346.04 963.515 347 968.403 347H1047V331H966.5Z" fill="black" stroke="black"/>
</svg>
