<svg width="1348" height="379" viewBox="0 0 1348 379" fill="none" xmlns="http://www.w3.org/2000/svg">
<path d="M1165 107.5L1059 1.5H1134.5L1202.5 67.5L1272.5 1.5H1348L1242 107.5L1348 214H1272.5L1202.5 145.5L1134.5 214H1057.5L1165 107.5Z" fill="white"/>
<path d="M76.5 214H0L207.607 6.88589C209.513 4.9845 211.808 3.5181 214.334 2.5874C218.017 1.23045 222.035 1.06971 225.814 2.12805L226.871 2.42383C230.56 3.45676 233.916 5.43314 236.609 8.15819L440 214H112L167 160H313L220 68.5L76.5 214Z" fill="white"/>
<path d="M447.5 215H500V133.5H679.5C689.327 133.5 698.98 130.913 707.49 125.999L710.846 124.061C723.272 116.885 733.005 105.835 738.554 92.6026L739.411 90.5581C745.85 75.2028 745.676 57.8723 738.93 42.6494C733.162 29.6348 722.99 19.071 710.202 12.8162L701.872 8.74159C690.113 2.9899 677.195 0 664.105 0H500L447.5 56H676.835C678.59 56 680.324 56.3846 681.915 57.1269C690.557 61.1598 691.278 73.1714 683.181 78.2097L682.517 78.623C680.545 79.8498 678.269 80.5 675.947 80.5H447.5V215Z" fill="white"/>
<path d="M757 1.5V53.5H999.5L1053.5 1.5H757Z" fill="white"/>
<path d="M757 214V82H1053.5V134.5H810.5V160H1053.5V214H757Z" fill="white"/>
<path d="M1151.5 320.5L1080.5 250H1125.5L1167 291.5L1208 250H1254L1183.5 320.5V377.5H1151.5V320.5Z" fill="white"/>
<path d="M841.053 376.74L792.551 326.048H837.611L888.303 376.74H841.053Z" fill="white"/>
<path d="M706.5 377.053H739.356V326.048H851.692C857.842 326.048 863.883 324.429 869.209 321.353L871.309 320.14C879.086 315.65 885.177 308.734 888.65 300.453L889.186 299.174C893.216 289.564 893.107 278.718 888.885 269.191C885.275 261.046 878.909 254.435 870.906 250.52L865.693 247.97C858.334 244.371 850.25 242.5 842.057 242.5H739.356L706.5 277.546H850.024C851.123 277.546 852.208 277.787 853.203 278.251C858.612 280.775 859.063 288.292 853.996 291.446L853.58 291.704C852.346 292.472 850.922 292.879 849.469 292.879H706.5V377.053Z" fill="white"/>
<path d="M520.5 249.5V280.578H665.429L697.702 249.5H520.5Z" fill="white"/>
<path d="M520.5 376.5V297.611H697.702V328.987H552.474V344.227H697.702V376.5H520.5Z" fill="white"/>
<path d="M130.5 251.5V282.578H275.429L307.702 251.5H130.5Z" fill="white"/>
<path d="M130.5 378.5V299.611H307.702V330.987H162.474V346.227H307.702V378.5H130.5Z" fill="white"/>
<path d="M362 378.5V297.5L476 363L485.382 367.33C487.766 368.43 490.36 369 492.985 369H495.774C498.8 369 501.702 367.798 503.842 365.658C505.568 363.932 506.695 361.697 507.058 359.283L509.5 343V251H476V325L355.611 253.75C354.206 252.918 352.742 252.188 351.231 251.566L348.277 250.349C346.113 249.458 343.796 249 341.456 249H337C334.167 249 331.5 250.334 329.8 252.6C328.632 254.158 328 256.053 328 258V378.5H362Z" fill="white"/>
<path d="M965 330.5L997 299H1078.5V378H959.5L948.329 374.808C937.3 371.657 927.281 365.689 919.258 357.492L918.395 356.61C911.885 349.959 906.99 341.902 904.087 333.06L903.901 332.495C899.755 319.868 899.989 306.213 904.564 293.735C907.164 286.644 911.1 280.118 916.158 274.509L917.769 272.724C926.742 262.775 938.331 255.548 951.213 251.868L959.5 249.5H1078.5L1045.5 283L980.785 281.794C970.291 281.599 959.805 282.506 949.5 284.5L942.731 289.967C938.642 293.27 935.441 297.541 933.419 302.393L933.227 302.856C930.496 309.409 930.16 316.714 932.278 323.489C934.953 332.05 941.293 338.98 949.583 342.404L952.657 343.674C957.175 345.54 962.015 346.5 966.903 346.5H1045.5V330.5H965Z" fill="white"/>
</svg>
