<svg width="1352" height="1412" viewBox="0 0 1352 1412" fill="none" xmlns="http://www.w3.org/2000/svg">
<path d="M304.989 965C301.78 961.488 299.518 957.63 296.489 954.518C267.895 925.148 239.11 895.964 210.584 866.527C207.939 863.797 206.705 859.699 205 855.611C205.184 854.985 205.407 854.781 205.407 854.781C217.52 848.083 229.702 841.505 241.733 834.664C268.897 819.219 295.743 803.197 323.163 788.223C368.538 763.443 415.333 741.371 464.058 724.221C498.483 712.104 533.994 702.769 569.47 694.011C616.446 682.413 664.556 679.382 712.743 681.698C784.098 685.128 853.147 700.774 919.216 727.638C962.085 745.068 1004.41 764.176 1045.68 785.103C1086.39 805.747 1125.56 829.456 1165.18 852.205C1175.51 858.134 1175.15 859.089 1166.78 867.639C1138.09 896.928 1109.38 926.202 1080.75 955.553C1078.31 958.054 1076.41 961.085 1074.05 964.435C1073.06 965 1072.27 965 1070.61 964.484C1065.88 960.828 1062.35 957.133 1058.12 954.641C1039.31 943.564 1020.14 933.086 1001.38 921.924C950.164 891.45 896.2 867.002 839.448 848.991C780.971 830.432 721.142 821.068 659.624 826.833C643.516 828.343 627.534 831.196 611.317 833.617C611.14 833.802 610.773 834.161 610.045 834.151C606.678 834.323 603.912 834.053 601.422 834.757C573.113 842.759 544.364 849.552 516.705 859.4C488.464 869.456 460.653 881.243 433.826 894.623C393.528 914.721 354.225 936.818 314.601 958.254C311.943 959.692 310.143 962.715 307.944 965C307.156 965 306.368 965 304.989 965Z" fill="url(#paint0_linear_50_62)"/>
<path d="M817.033 103.155C844.098 159.025 870.914 214.28 897.741 269.53C923.673 322.935 949.591 376.347 975.559 429.735C1008.1 496.63 1040.74 563.473 1073.21 630.399C1085.71 656.164 1097.89 682.089 1110.17 707.958C1111.51 710.768 1112.59 713.697 1112.3 718.145C1107.77 715.743 1103.14 713.499 1098.71 710.916C1064.14 690.756 1028.39 673.293 989.257 663.777C971.471 659.452 953.639 655.258 935.696 651.661C928.918 650.303 924.466 647.264 921.514 641.183C910.166 617.807 898.758 594.459 887.234 571.169C866.817 529.909 846.202 488.747 825.882 447.439C819.378 434.219 813.595 420.647 807.371 407.288C805.913 404.158 804.003 401.239 802.301 398.223C801.303 397.918 800.304 397.612 799.306 397.307C763.783 460.056 728.26 522.805 692.737 585.554C691.656 585.597 690.574 585.641 689.493 585.684C654.094 522.69 618.696 459.697 582.144 394.65C579.094 400.242 577.186 403.438 575.557 406.771C538.592 482.406 501.465 557.963 464.926 633.803C459.473 645.122 452.74 650.48 439.822 652.1C394.841 657.741 352.764 672.904 312.996 694.59C300.562 701.371 288.002 707.924 275.436 714.459C273.037 715.707 270.342 716.386 265.067 718.326C267.721 711.404 269.089 707.066 270.997 702.98C285.854 671.169 300.717 639.36 315.773 607.642C330.955 575.658 346.539 543.864 361.621 511.833C378.49 476.006 394.881 439.954 411.69 404.098C424.218 377.375 437.198 350.865 449.77 324.162C476.672 267.018 503.406 209.793 530.277 152.633C548.116 114.684 566.076 76.7921 583.977 38.8721C588.642 28.9914 593.374 19.1415 597.907 9.20054C600.512 3.48608 604.552 0.568729 610.994 0.577873C660.045 0.647501 709.095 0.642568 758.145 0.559603C764.527 0.548809 768.685 3.2347 771.365 8.98165C777.354 21.829 783.484 34.6123 789.69 47.3569C798.662 65.7806 807.751 84.1469 817.033 103.155ZM647.614 329.446C645.554 332.679 643.606 335.991 641.409 339.128C637.182 345.164 637.572 350.697 641.371 357.108C655.199 380.445 668.519 404.082 682.103 427.565C684.548 431.793 687.332 435.825 690.783 441.239C693.542 437.654 695.696 435.371 697.257 432.737C703.721 421.832 710.265 410.961 716.293 399.814C724.245 385.109 730.459 369.268 739.909 355.642C745.658 347.353 743.288 342.954 739.056 336.418C733.972 328.567 729.61 320.224 725.285 311.912C716.04 294.141 707.135 276.193 697.854 258.441C693.958 250.987 689.645 250.428 685.76 257.538C672.933 281.012 660.756 304.842 648.345 328.52C648.345 328.52 648.359 328.506 647.614 329.446Z" fill="url(#paint1_linear_50_62)"/>
<path d="M1167 1140.5L1061 1034.5H1136.5L1204.5 1100.5L1274.5 1034.5H1350L1244 1140.5L1350 1247H1274.5L1204.5 1178.5L1136.5 1247H1059.5L1167 1140.5Z" fill="white" stroke="white"/>
<path d="M78.5 1247H2L209.607 1039.89C211.513 1037.98 213.808 1036.52 216.334 1035.59C220.017 1034.23 224.035 1034.07 227.814 1035.13L228.871 1035.42C232.56 1036.46 235.916 1038.43 238.609 1041.16L442 1247H114L169 1193H315L222 1101.5L78.5 1247Z" fill="white" stroke="white"/>
<path d="M449.5 1248H502V1166.5H681.5C691.327 1166.5 700.98 1163.91 709.49 1159L712.846 1157.06C725.272 1149.89 735.005 1138.84 740.554 1125.6L741.411 1123.56C747.85 1108.2 747.676 1090.87 740.93 1075.65C735.162 1062.63 724.99 1052.07 712.202 1045.82L703.872 1041.74C692.113 1035.99 679.195 1033 666.105 1033H502L449.5 1089H678.835C680.59 1089 682.324 1089.38 683.915 1090.13C692.557 1094.16 693.278 1106.17 685.181 1111.21L684.517 1111.62C682.545 1112.85 680.269 1113.5 677.947 1113.5H449.5V1248Z" fill="white" stroke="white"/>
<path d="M759 1034.5V1086.5H1001.5L1055.5 1034.5H759Z" fill="white" stroke="white"/>
<path d="M759 1247V1115H1055.5V1167.5H812.5V1193H1055.5V1247H759Z" fill="white" stroke="white"/>
<path d="M1153.5 1353.5L1082.5 1283H1127.5L1169 1324.5L1210 1283H1256L1185.5 1353.5V1410.5H1153.5V1353.5Z" fill="white" stroke="white"/>
<path d="M843.053 1409.74L794.551 1359.05H839.611L890.303 1409.74H843.053Z" fill="white" stroke="white"/>
<path d="M708.5 1410.05H741.356V1359.05H853.692C859.842 1359.05 865.883 1357.43 871.209 1354.35L873.309 1353.14C881.086 1348.65 887.177 1341.73 890.65 1333.45L891.186 1332.17C895.216 1322.56 895.107 1311.72 890.885 1302.19C887.275 1294.05 880.909 1287.44 872.906 1283.52L867.693 1280.97C860.334 1277.37 852.25 1275.5 844.057 1275.5H741.356L708.5 1310.55H852.024C853.123 1310.55 854.208 1310.79 855.203 1311.25C860.612 1313.78 861.063 1321.29 855.996 1324.45L855.58 1324.7C854.346 1325.47 852.922 1325.88 851.469 1325.88H708.5V1410.05Z" fill="white" stroke="white"/>
<path d="M522.5 1282.5V1313.58H667.429L699.702 1282.5H522.5Z" fill="white" stroke="white"/>
<path d="M522.5 1409.5V1330.61H699.702V1361.99H554.474V1377.23H699.702V1409.5H522.5Z" fill="white" stroke="white"/>
<path d="M132.5 1284.5V1315.58H277.429L309.702 1284.5H132.5Z" fill="white" stroke="white"/>
<path d="M132.5 1411.5V1332.61H309.702V1363.99H164.474V1379.23H309.702V1411.5H132.5Z" fill="white" stroke="white"/>
<path d="M364 1411.5V1330.5L478 1396L487.382 1400.33C489.766 1401.43 492.36 1402 494.985 1402H497.774C500.8 1402 503.702 1400.8 505.842 1398.66C507.568 1396.93 508.695 1394.7 509.058 1392.28L511.5 1376V1284H478V1358L357.611 1286.75C356.206 1285.92 354.742 1285.19 353.231 1284.57L350.277 1283.35C348.113 1282.46 345.796 1282 343.456 1282H339C336.167 1282 333.5 1283.33 331.8 1285.6C330.632 1287.16 330 1289.05 330 1291V1411.5H364Z" fill="white" stroke="white"/>
<path d="M967 1363.5L999 1332H1080.5V1411H961.5L950.329 1407.81C939.3 1404.66 929.281 1398.69 921.258 1390.49L920.395 1389.61C913.885 1382.96 908.99 1374.9 906.087 1366.06L905.901 1365.49C901.755 1352.87 901.989 1339.21 906.564 1326.74C909.164 1319.64 913.1 1313.12 918.158 1307.51L919.769 1305.72C928.742 1295.78 940.331 1288.55 953.213 1284.87L961.5 1282.5H1080.5L1047.5 1316L982.785 1314.79C972.291 1314.6 961.805 1315.51 951.5 1317.5L944.731 1322.97C940.642 1326.27 937.441 1330.54 935.419 1335.39L935.227 1335.86C932.496 1342.41 932.16 1349.71 934.278 1356.49C936.953 1365.05 943.293 1371.98 951.583 1375.4L954.657 1376.67C959.175 1378.54 964.015 1379.5 968.903 1379.5H1047.5V1363.5H967Z" fill="white" stroke="white"/>
<defs>
<linearGradient id="paint0_linear_50_62" x1="1269.76" y1="965" x2="205.115" y2="965" gradientUnits="userSpaceOnUse">
<stop stop-color="#FFE6BE"/>
<stop offset="0.75" stop-color="#FCB344"/>
<stop offset="1" stop-color="#8F4C00"/>
</linearGradient>
<linearGradient id="paint1_linear_50_62" x1="265.394" y1="0.529277" x2="1195.29" y2="0.529269" gradientUnits="userSpaceOnUse">
<stop stop-color="#8F4C00"/>
<stop offset="0.25" stop-color="#FFB948"/>
<stop offset="1" stop-color="white"/>
</linearGradient>
</defs>
</svg>
