<svg width="1352" height="1420" viewBox="0 0 1352 1420" fill="none" xmlns="http://www.w3.org/2000/svg">
<path d="M811.104 105.457C838.924 162.886 866.488 219.682 894.063 276.472C920.718 331.367 947.359 386.269 974.051 441.146C1007.5 509.907 1041.05 578.615 1074.43 647.407C1087.28 673.891 1099.79 700.539 1112.42 727.13C1113.79 730.018 1114.9 733.029 1114.61 737.6C1109.95 735.132 1105.19 732.825 1100.64 730.17C1065.1 709.447 1028.36 691.498 988.132 681.716C969.849 677.27 951.52 672.96 933.077 669.263C926.11 667.866 921.534 664.742 918.5 658.492C906.834 634.464 895.109 610.465 883.263 586.525C862.277 544.114 841.086 501.804 820.199 459.344C813.515 445.756 807.57 431.805 801.172 418.073C799.673 414.856 797.71 411.855 795.961 408.755C794.935 408.441 793.909 408.127 792.883 407.813C756.369 472.313 719.855 536.812 683.341 601.311C682.23 601.356 681.118 601.4 680.006 601.445C643.621 536.694 607.235 471.944 569.663 405.083C566.529 410.83 564.567 414.116 562.893 417.542C524.897 495.286 486.734 572.951 449.176 650.906C443.571 662.541 436.65 668.048 423.371 669.714C377.136 675.512 333.885 691.097 293.008 713.389C280.227 720.359 267.317 727.094 254.4 733.812C251.935 735.095 249.165 735.792 243.742 737.787C246.47 730.671 247.876 726.212 249.838 722.013C265.109 689.314 280.387 656.618 295.862 624.016C311.468 591.14 327.487 558.459 342.989 525.534C360.329 488.708 377.177 451.65 394.455 414.794C407.333 387.326 420.675 360.076 433.597 332.629C461.25 273.89 488.729 215.069 516.349 156.315C534.686 117.308 553.147 78.3588 571.548 39.3812C576.342 29.2249 581.207 19.1003 585.866 8.88198C588.544 3.00814 592.696 0.0094138 599.318 0.0188136C649.737 0.0903838 700.155 0.0853132 750.574 3.33018e-05C757.134 -0.0110613 761.408 2.74975 764.162 8.65699C770.319 21.8627 776.62 35.0025 782.999 48.1027C792.22 67.0402 801.563 85.9188 811.104 105.457ZM636.96 338.06C634.842 341.383 632.84 344.787 630.581 348.012C626.237 354.216 626.637 359.904 630.542 366.494C644.757 390.481 658.448 414.778 672.41 438.916C674.924 443.261 677.785 447.406 681.332 452.971C684.169 449.286 686.382 446.94 687.987 444.232C694.632 433.023 701.358 421.848 707.554 410.39C715.728 395.275 722.115 378.993 731.829 364.987C737.738 356.467 735.303 351.945 730.952 345.226C725.727 337.157 721.242 328.581 716.797 320.037C707.294 301.77 698.14 283.322 688.601 265.074C684.596 257.412 680.163 256.838 676.169 264.146C662.984 288.275 650.468 312.769 637.711 337.108C637.711 337.108 637.725 337.094 636.96 338.06Z" fill="url(#paint0_linear_53_126)"/>
<path d="M284.778 991.341C281.48 987.731 279.155 983.765 276.041 980.567C246.649 950.377 217.061 920.379 187.74 890.121C185.021 887.315 183.753 883.102 182 878.9C182.189 878.257 182.418 878.047 182.418 878.047C194.87 871.163 207.391 864.401 219.758 857.369C247.68 841.493 275.274 825.024 303.459 809.632C350.1 784.162 398.199 761.474 448.283 743.845C483.669 731.39 520.171 721.796 556.636 712.793C604.922 700.872 654.374 697.756 703.905 700.137C777.251 703.662 848.225 719.745 916.138 747.358C960.202 765.274 1003.71 784.915 1046.13 806.425C1087.97 827.645 1128.23 852.016 1168.96 875.399C1179.58 881.494 1179.21 882.476 1170.6 891.264C1141.11 921.37 1111.6 951.46 1082.18 981.63C1079.67 984.201 1077.72 987.316 1075.29 990.759C1074.27 991.341 1073.46 991.341 1071.75 990.811C1066.89 987.052 1063.27 983.255 1058.92 980.693C1039.58 969.306 1019.88 958.536 1000.6 947.063C947.948 915.739 892.48 890.609 834.144 872.096C774.036 853.02 712.538 843.394 649.305 849.32C632.748 850.872 616.32 853.804 599.65 856.293C599.468 856.483 599.091 856.852 598.343 856.842C594.882 857.019 592.039 856.741 589.479 857.465C560.381 865.69 530.829 872.672 502.399 882.796C473.371 893.132 444.784 905.248 417.209 919.001C375.787 939.659 335.387 962.373 294.658 984.407C291.926 985.884 290.076 988.991 287.816 991.341C287.006 991.341 286.196 991.341 284.778 991.341Z" fill="url(#paint1_linear_53_126)"/>
<path d="M1167 1147.94L1061 1041.94H1136.5L1204.5 1107.94L1274.5 1041.94H1350L1244 1147.94L1350 1254.44H1274.5L1204.5 1185.94L1136.5 1254.44H1059.5L1167 1147.94Z" fill="white" stroke="white"/>
<path d="M78.5 1254.44H2L209.607 1047.33C211.513 1045.42 213.808 1043.96 216.334 1043.03C220.017 1041.67 224.035 1041.51 227.814 1042.57L228.871 1042.86C232.56 1043.9 235.916 1045.87 238.609 1048.6L442 1254.44H114L169 1200.44H315L222 1108.94L78.5 1254.44Z" fill="white" stroke="white"/>
<path d="M449.5 1255.44H502V1173.94H681.5C691.327 1173.94 700.98 1171.35 709.49 1166.44L712.846 1164.5C725.272 1157.33 735.005 1146.28 740.554 1133.04L741.411 1131C747.85 1115.64 747.676 1098.31 740.93 1083.09C735.162 1070.08 724.99 1059.51 712.202 1053.26L703.872 1049.18C692.113 1043.43 679.195 1040.44 666.105 1040.44H502L449.5 1096.44H678.835C680.59 1096.44 682.324 1096.83 683.915 1097.57C692.557 1101.6 693.278 1113.61 685.181 1118.65L684.517 1119.06C682.545 1120.29 680.269 1120.94 677.947 1120.94H449.5V1255.44Z" fill="white" stroke="white"/>
<path d="M759 1041.94V1093.94H1001.5L1055.5 1041.94H759Z" fill="white" stroke="white"/>
<path d="M759 1254.44V1122.44H1055.5V1174.94H812.5V1200.44H1055.5V1254.44H759Z" fill="white" stroke="white"/>
<path d="M1153.5 1360.94L1082.5 1290.44H1127.5L1169 1331.94L1210 1290.44H1256L1185.5 1360.94V1417.94H1153.5V1360.94Z" fill="white" stroke="white"/>
<path d="M843.053 1417.18L794.551 1366.49H839.611L890.303 1417.18H843.053Z" fill="white" stroke="white"/>
<path d="M708.5 1417.49H741.356V1366.49H853.692C859.842 1366.49 865.883 1364.87 871.209 1361.79L873.309 1360.58C881.086 1356.09 887.177 1349.18 890.65 1340.89L891.186 1339.61C895.216 1330 895.107 1319.16 890.885 1309.63C887.275 1301.49 880.909 1294.88 872.906 1290.96L867.693 1288.41C860.334 1284.81 852.25 1282.94 844.057 1282.94H741.356L708.5 1317.99H852.024C853.123 1317.99 854.208 1318.23 855.203 1318.69C860.612 1321.22 861.063 1328.73 855.996 1331.89L855.58 1332.14C854.346 1332.91 852.922 1333.32 851.469 1333.32H708.5V1417.49Z" fill="white" stroke="white"/>
<path d="M522.5 1289.94V1321.02H667.429L699.702 1289.94H522.5Z" fill="white" stroke="white"/>
<path d="M522.5 1416.94V1338.05H699.702V1369.43H554.474V1384.67H699.702V1416.94H522.5Z" fill="white" stroke="white"/>
<path d="M132.5 1291.94V1323.02H277.429L309.702 1291.94H132.5Z" fill="white" stroke="white"/>
<path d="M132.5 1418.94V1340.05H309.702V1371.43H164.474V1386.67H309.702V1418.94H132.5Z" fill="white" stroke="white"/>
<path d="M364 1418.94V1337.94L478 1403.44L487.382 1407.77C489.766 1408.87 492.36 1409.44 494.985 1409.44H497.774C500.8 1409.44 503.702 1408.24 505.842 1406.1C507.568 1404.37 508.695 1402.14 509.058 1399.72L511.5 1383.44V1291.44H478V1365.44L357.611 1294.19C356.206 1293.36 354.742 1292.63 353.231 1292.01L350.277 1290.79C348.113 1289.9 345.796 1289.44 343.456 1289.44H339C336.167 1289.44 333.5 1290.77 331.8 1293.04C330.632 1294.6 330 1296.49 330 1298.44V1418.94H364Z" fill="white" stroke="white"/>
<path d="M967 1370.94L999 1339.44H1080.5V1418.44H961.5L950.329 1415.25C939.3 1412.1 929.281 1406.13 921.258 1397.93L920.395 1397.05C913.885 1390.4 908.99 1382.34 906.087 1373.5L905.901 1372.94C901.755 1360.31 901.989 1346.65 906.564 1334.18C909.164 1327.08 913.1 1320.56 918.158 1314.95L919.769 1313.16C928.742 1303.22 940.331 1295.99 953.213 1292.31L961.5 1289.94H1080.5L1047.5 1323.44L982.785 1322.23C972.291 1322.04 961.805 1322.95 951.5 1324.94L944.731 1330.41C940.642 1333.71 937.441 1337.98 935.419 1342.83L935.227 1343.3C932.496 1349.85 932.16 1357.15 934.278 1363.93C936.953 1372.49 943.293 1379.42 951.583 1382.84L954.657 1384.11C959.175 1385.98 964.015 1386.94 968.903 1386.94H1047.5V1370.94H967Z" fill="white" stroke="white"/>
<defs>
<linearGradient id="paint0_linear_53_126" x1="244.079" y1="-0.0311379" x2="1199.91" y2="-0.031147" gradientUnits="userSpaceOnUse">
<stop stop-color="#003366"/>
<stop offset="0.4" stop-color="#00BBFF"/>
<stop offset="1" stop-color="white"/>
</linearGradient>
<linearGradient id="paint1_linear_53_126" x1="1276.45" y1="991.341" x2="182.118" y2="991.341" gradientUnits="userSpaceOnUse">
<stop stop-color="white"/>
<stop offset="0.6" stop-color="#00BBFF"/>
<stop offset="1" stop-color="#003366"/>
</linearGradient>
</defs>
</svg>
