<svg width="546" height="544" viewBox="0 0 546 544" fill="none" xmlns="http://www.w3.org/2000/svg">
<path d="M345.211 57.8681C360.477 89.381 375.602 120.547 390.734 151.71C405.36 181.833 419.979 211.959 434.626 242.072C452.979 279.803 471.39 317.506 489.707 355.255C496.758 369.787 503.625 384.41 510.555 399.001C511.307 400.586 511.917 402.238 511.755 404.747C509.197 403.392 506.588 402.126 504.09 400.67C484.588 389.298 464.426 379.449 442.352 374.081C432.32 371.642 422.262 369.276 412.142 367.248C408.319 366.481 405.808 364.767 404.143 361.337C397.742 348.152 391.307 334.983 384.807 321.847C373.292 298.574 361.663 275.357 350.202 252.058C346.534 244.602 343.272 236.946 339.761 229.411C338.939 227.646 337.862 225.999 336.902 224.298C336.339 224.126 335.776 223.954 335.213 223.781C315.176 259.174 295.14 294.567 275.103 329.96C274.493 329.985 273.883 330.009 273.273 330.034C253.307 294.503 233.341 258.972 212.724 222.283C211.004 225.437 209.928 227.24 209.009 229.12C188.159 271.781 167.218 314.398 146.609 357.175C143.533 363.559 139.736 366.581 132.449 367.495C107.078 370.676 83.3447 379.229 60.914 391.461C53.9005 395.286 46.8162 398.982 39.7287 402.668C38.3757 403.372 36.8556 403.755 33.8801 404.849C35.377 400.944 36.1485 398.498 37.2249 396.193C45.605 378.251 53.9882 360.309 62.4802 342.419C71.0436 324.379 79.8337 306.446 88.3404 288.379C97.8552 268.171 107.1 247.836 116.582 227.612C123.648 212.539 130.969 197.586 138.06 182.525C153.234 150.293 168.313 118.016 183.469 85.7755C193.531 64.3709 203.661 42.9982 213.758 21.6098C216.389 16.0367 219.059 10.481 221.615 4.87385C223.085 1.65067 225.363 0.00516568 228.997 0.0103237C256.663 0.0495967 284.33 0.0468143 311.996 1.82739e-05C315.596 -0.00606973 317.941 1.50888 319.452 4.75039C322.831 11.9968 326.288 19.2071 329.789 26.3956C334.849 36.7873 339.976 47.1466 345.211 57.8681ZM249.652 185.505C248.49 187.329 247.391 189.197 246.152 190.966C243.768 194.371 243.988 197.492 246.131 201.108C253.931 214.27 261.443 227.603 269.105 240.848C270.484 243.233 272.055 245.507 274.001 248.561C275.557 246.539 276.772 245.251 277.653 243.766C281.299 237.615 284.99 231.483 288.39 225.195C292.875 216.901 296.38 207.966 301.71 200.281C304.953 195.605 303.616 193.124 301.229 189.438C298.362 185.009 295.901 180.304 293.462 175.615C288.247 165.592 283.224 155.468 277.99 145.455C275.792 141.251 273.359 140.936 271.168 144.946C263.933 158.186 257.065 171.627 250.064 184.983C250.064 184.983 250.072 184.975 249.652 185.505Z" fill="url(#paint0_linear_53_95)"/>
<path d="M56.398 543.983C54.588 542.002 53.3121 539.826 51.6035 538.071C35.4753 521.505 19.2391 505.044 3.14962 488.44C1.6575 486.9 0.961813 484.589 0 482.283C0.103682 481.93 0.229638 481.815 0.229638 481.815C7.06206 478.037 13.9327 474.327 20.7191 470.468C36.0407 461.756 51.1829 452.719 66.6487 444.273C92.2421 430.297 118.636 417.847 146.119 408.174C165.536 401.339 185.566 396.074 205.576 391.134C232.072 384.593 259.208 382.883 286.387 384.189C326.635 386.124 365.581 394.949 402.847 410.101C427.026 419.932 450.901 430.71 474.177 442.514C497.139 454.158 519.23 467.531 541.579 480.362C547.405 483.706 547.205 484.245 542.481 489.067C526.298 505.588 510.105 522.099 493.957 538.654C492.581 540.065 491.511 541.774 490.181 543.664C489.62 543.983 489.176 543.983 488.237 543.692C485.57 541.63 483.582 539.546 481.195 538.14C470.584 531.892 459.773 525.982 449.191 519.686C420.302 502.498 389.865 488.708 357.854 478.549C324.871 468.081 291.125 462.8 256.426 466.051C247.341 466.903 238.326 468.512 229.179 469.878C229.079 469.982 228.872 470.184 228.462 470.179C226.563 470.276 225.002 470.123 223.598 470.521C207.631 475.034 191.415 478.866 175.814 484.421C159.885 490.092 144.199 496.741 129.067 504.287C106.337 515.624 84.169 528.087 61.8194 540.178C60.3204 540.989 59.305 542.694 58.0647 543.983C57.6203 543.983 57.1758 543.983 56.398 543.983Z" fill="url(#paint1_linear_53_95)"/>
<defs>
<linearGradient id="paint0_linear_53_95" x1="34.0648" y1="-0.0170864" x2="558.565" y2="-0.0170914" gradientUnits="userSpaceOnUse">
<stop stop-color="#003366"/>
<stop offset="0.4" stop-color="#00BBFF"/>
<stop offset="1" stop-color="white"/>
</linearGradient>
<linearGradient id="paint1_linear_53_95" x1="600.565" y1="543.983" x2="0.064713" y2="543.983" gradientUnits="userSpaceOnUse">
<stop stop-color="white"/>
<stop offset="0.6" stop-color="#00BBFF"/>
<stop offset="1" stop-color="#003366"/>
</linearGradient>
</defs>
</svg>
