<svg width="1352" height="1425" viewBox="0 0 1352 1425" fill="none" xmlns="http://www.w3.org/2000/svg">
<path d="M820.266 105.987C848.225 163.704 875.928 220.786 903.642 277.862C930.43 333.033 957.205 388.21 984.032 443.363C1017.65 512.469 1051.37 581.523 1084.91 650.661C1097.83 677.278 1110.41 704.059 1123.1 730.784C1124.48 733.686 1125.59 736.712 1125.3 741.307C1120.61 738.826 1115.83 736.508 1111.26 733.84C1075.54 713.013 1038.61 694.972 998.183 685.142C979.809 680.674 961.387 676.342 942.851 672.626C935.849 671.222 931.25 668.083 928.201 661.801C916.477 637.652 904.692 613.532 892.787 589.473C871.696 546.848 850.398 504.326 829.407 461.653C822.688 447.996 816.714 433.975 810.284 420.174C808.777 416.941 806.804 413.925 805.046 410.809C804.015 410.494 802.984 410.178 801.953 409.863C765.255 474.686 728.558 539.509 691.861 604.333C690.743 604.378 689.626 604.423 688.509 604.468C651.94 539.391 615.372 474.315 577.611 407.119C574.461 412.895 572.49 416.197 570.807 419.64C532.62 497.775 494.266 575.83 456.519 654.177C450.885 665.87 443.93 671.406 430.584 673.079C384.117 678.906 340.649 694.57 299.566 716.974C286.721 723.979 273.745 730.748 260.764 737.5C258.286 738.789 255.502 739.49 250.053 741.495C252.794 734.343 254.207 729.862 256.179 725.641C271.527 692.778 286.881 659.918 302.435 627.152C318.119 594.11 334.218 561.265 349.798 528.175C367.225 491.164 384.158 453.92 401.523 416.879C414.465 389.273 427.874 361.886 440.861 334.3C468.653 275.266 496.27 216.15 524.029 157.101C542.459 117.897 561.013 78.7526 579.505 39.5791C584.324 29.3718 589.213 19.1963 593.895 8.92662C596.587 3.02325 600.76 0.00946111 607.416 0.0189082C658.087 0.0908379 708.759 0.0857419 759.431 3.34692e-05C766.024 -0.0111169 770.32 2.76357 773.088 8.70049C779.275 21.9725 785.608 35.1784 792.019 48.3444C801.287 67.3771 810.677 86.3506 820.266 105.987ZM645.246 339.759C643.118 343.099 641.105 346.52 638.836 349.761C634.469 355.996 634.872 361.712 638.796 368.335C653.082 392.443 666.842 416.862 680.875 441.121C683.401 445.489 686.277 449.654 689.842 455.247C692.692 451.544 694.917 449.186 696.53 446.465C703.208 435.199 709.968 423.968 716.196 412.453C724.41 397.262 730.829 380.897 740.592 366.821C746.531 358.258 744.083 353.714 739.711 346.961C734.459 338.851 729.952 330.232 725.485 321.645C715.934 303.287 706.734 284.745 697.147 266.406C693.122 258.706 688.666 258.128 684.653 265.473C671.402 289.724 658.822 314.341 646.001 338.802C646.001 338.802 646.015 338.788 645.246 339.759Z" fill="url(#paint0_linear_53_94)"/>
<path d="M291.295 996.323C287.98 992.695 285.643 988.709 282.514 985.495C252.974 955.153 223.237 925.004 193.769 894.594C191.036 891.774 189.762 887.541 188 883.317C188.19 882.671 188.421 882.46 188.421 882.46C200.934 875.541 213.518 868.745 225.948 861.678C254.01 845.722 281.743 829.17 310.069 813.702C356.945 788.103 405.286 765.301 455.621 747.584C491.185 735.066 527.87 725.423 564.518 716.376C613.047 704.395 662.748 701.263 712.528 703.656C786.242 707.199 857.573 723.362 925.827 751.114C970.113 769.12 1013.84 788.86 1056.47 810.478C1098.53 831.805 1138.99 856.298 1179.92 879.799C1190.59 885.924 1190.22 886.911 1181.57 895.743C1151.93 926.001 1122.27 956.242 1092.7 986.564C1090.18 989.148 1088.22 992.278 1085.78 995.739C1084.76 996.323 1083.94 996.323 1082.22 995.79C1077.34 992.013 1073.7 988.196 1069.32 985.621C1049.89 974.178 1030.09 963.354 1010.71 951.823C957.797 920.341 902.05 895.085 843.421 876.479C783.011 857.307 721.204 847.633 657.653 853.588C641.013 855.148 624.502 858.095 607.749 860.597C607.566 860.788 607.187 861.159 606.435 861.148C602.957 861.326 600.099 861.047 597.526 861.774C568.282 870.041 538.582 877.058 510.009 887.232C480.835 897.621 452.104 909.797 424.391 923.619C382.76 944.382 342.158 967.21 301.224 989.354C298.479 990.839 296.619 993.962 294.347 996.323C293.533 996.323 292.719 996.323 291.295 996.323Z" fill="url(#paint1_linear_53_94)"/>
<path d="M1167 1152.94L1061 1046.94H1136.5L1204.5 1112.94L1274.5 1046.94H1350L1244 1152.94L1350 1259.44H1274.5L1204.5 1190.94L1136.5 1259.44H1059.5L1167 1152.94Z" fill="white" stroke="white"/>
<path d="M78.5 1259.44H2L209.607 1052.33C211.513 1050.42 213.808 1048.96 216.334 1048.03C220.017 1046.67 224.035 1046.51 227.814 1047.57L228.871 1047.86C232.56 1048.9 235.916 1050.87 238.609 1053.6L442 1259.44H114L169 1205.44H315L222 1113.94L78.5 1259.44Z" fill="white" stroke="white"/>
<path d="M449.5 1260.44H502V1178.94H681.5C691.327 1178.94 700.98 1176.35 709.49 1171.44L712.846 1169.5C725.272 1162.33 735.005 1151.28 740.554 1138.04L741.411 1136C747.85 1120.64 747.676 1103.31 740.93 1088.09C735.162 1075.08 724.99 1064.51 712.202 1058.26L703.872 1054.18C692.113 1048.43 679.195 1045.44 666.105 1045.44H502L449.5 1101.44H678.835C680.59 1101.44 682.324 1101.83 683.915 1102.57C692.557 1106.6 693.278 1118.61 685.181 1123.65L684.517 1124.06C682.545 1125.29 680.269 1125.94 677.947 1125.94H449.5V1260.44Z" fill="white" stroke="white"/>
<path d="M759 1046.94V1098.94H1001.5L1055.5 1046.94H759Z" fill="white" stroke="white"/>
<path d="M759 1259.44V1127.44H1055.5V1179.94H812.5V1205.44H1055.5V1259.44H759Z" fill="white" stroke="white"/>
<path d="M1153.5 1365.94L1082.5 1295.44H1127.5L1169 1336.94L1210 1295.44H1256L1185.5 1365.94V1422.94H1153.5V1365.94Z" fill="white" stroke="white"/>
<path d="M843.053 1422.18L794.551 1371.49H839.611L890.303 1422.18H843.053Z" fill="white" stroke="white"/>
<path d="M708.5 1422.49H741.356V1371.49H853.692C859.842 1371.49 865.883 1369.87 871.209 1366.79L873.309 1365.58C881.086 1361.09 887.177 1354.18 890.65 1345.89L891.186 1344.61C895.216 1335 895.107 1324.16 890.885 1314.63C887.275 1306.49 880.909 1299.88 872.906 1295.96L867.693 1293.41C860.334 1289.81 852.25 1287.94 844.057 1287.94H741.356L708.5 1322.99H852.024C853.123 1322.99 854.208 1323.23 855.203 1323.69C860.612 1326.22 861.063 1333.73 855.996 1336.89L855.58 1337.14C854.346 1337.91 852.922 1338.32 851.469 1338.32H708.5V1422.49Z" fill="white" stroke="white"/>
<path d="M522.5 1294.94V1326.02H667.429L699.702 1294.94H522.5Z" fill="white" stroke="white"/>
<path d="M522.5 1421.94V1343.05H699.702V1374.43H554.474V1389.67H699.702V1421.94H522.5Z" fill="white" stroke="white"/>
<path d="M132.5 1296.94V1328.02H277.429L309.702 1296.94H132.5Z" fill="white" stroke="white"/>
<path d="M132.5 1423.94V1345.05H309.702V1376.43H164.474V1391.67H309.702V1423.94H132.5Z" fill="white" stroke="white"/>
<path d="M364 1423.94V1342.94L478 1408.44L487.382 1412.77C489.766 1413.87 492.36 1414.44 494.985 1414.44H497.774C500.8 1414.44 503.702 1413.24 505.842 1411.1C507.568 1409.37 508.695 1407.14 509.058 1404.72L511.5 1388.44V1296.44H478V1370.44L357.611 1299.19C356.206 1298.36 354.742 1297.63 353.231 1297.01L350.277 1295.79C348.113 1294.9 345.796 1294.44 343.456 1294.44H339C336.167 1294.44 333.5 1295.77 331.8 1298.04C330.632 1299.6 330 1301.49 330 1303.44V1423.94H364Z" fill="white" stroke="white"/>
<path d="M967 1375.94L999 1344.44H1080.5V1423.44H961.5L950.329 1420.25C939.3 1417.1 929.281 1411.13 921.258 1402.93L920.395 1402.05C913.885 1395.4 908.99 1387.34 906.087 1378.5L905.901 1377.94C901.755 1365.31 901.989 1351.65 906.564 1339.18C909.164 1332.08 913.1 1325.56 918.158 1319.95L919.769 1318.16C928.742 1308.22 940.331 1300.99 953.213 1297.31L961.5 1294.94H1080.5L1047.5 1328.44L982.785 1327.23C972.291 1327.04 961.805 1327.95 951.5 1329.94L944.731 1335.41C940.642 1338.71 937.441 1342.98 935.419 1347.83L935.227 1348.3C932.496 1354.85 932.16 1362.15 934.278 1368.93C936.953 1377.49 943.293 1384.42 951.583 1387.84L954.657 1389.11C959.175 1390.98 964.015 1391.94 968.903 1391.94H1047.5V1375.94H967Z" fill="white" stroke="white"/>
<defs>
<linearGradient id="paint0_linear_53_94" x1="250.391" y1="-0.0312944" x2="1211.03" y2="-0.0313035" gradientUnits="userSpaceOnUse">
<stop stop-color="#228B22"/>
<stop offset="0.4" stop-color="#57B993"/>
<stop offset="1" stop-color="#BFE3CF"/>
</linearGradient>
<linearGradient id="paint1_linear_53_94" x1="1287.95" y1="996.323" x2="188.119" y2="996.323" gradientUnits="userSpaceOnUse">
<stop stop-color="#BFE3CF"/>
<stop offset="0.6" stop-color="#57B993"/>
<stop offset="1" stop-color="#228B22"/>
</linearGradient>
</defs>
</svg>
