<svg width="1352" height="1411" viewBox="0 0 1352 1411" fill="none" xmlns="http://www.w3.org/2000/svg">
<path d="M304.989 964.44C301.78 960.928 299.518 957.07 296.489 953.959C267.895 924.588 239.11 895.404 210.584 865.967C207.939 863.237 206.705 859.139 205 855.051C205.184 854.425 205.407 854.221 205.407 854.221C217.52 847.523 229.702 840.945 241.733 834.104C268.897 818.659 295.743 802.637 323.163 787.663C368.538 762.883 415.333 740.811 464.058 723.661C498.483 711.544 533.994 702.209 569.47 693.451C616.446 681.854 664.556 678.822 712.743 681.138C784.098 684.568 853.147 700.214 919.216 727.078C962.085 744.508 1004.41 763.616 1045.68 784.543C1086.39 805.187 1125.56 828.896 1165.18 851.645C1175.51 857.574 1175.15 858.529 1166.78 867.079C1138.09 896.368 1109.38 925.642 1080.75 954.993C1078.31 957.495 1076.41 960.525 1074.05 963.875C1073.06 964.44 1072.27 964.44 1070.61 963.925C1065.88 960.268 1062.35 956.573 1058.12 954.081C1039.31 943.004 1020.14 932.526 1001.38 921.364C950.164 890.89 896.2 866.442 839.448 848.431C780.971 829.872 721.142 820.508 659.624 826.273C643.516 827.783 627.534 830.636 611.317 833.057C611.14 833.242 610.773 833.601 610.045 833.591C606.678 833.764 603.912 833.493 601.422 834.197C573.113 842.199 544.364 848.992 516.705 858.841C488.464 868.896 460.653 880.683 433.826 894.063C393.528 914.161 354.225 936.258 314.601 957.694C311.943 959.132 310.143 962.155 307.944 964.44C307.156 964.44 306.368 964.44 304.989 964.44Z" fill="url(#paint0_linear_44_31)"/>
<path d="M817.033 102.596C844.098 158.466 870.914 213.72 897.741 268.97C923.672 322.376 949.59 375.788 975.558 429.175C1008.1 496.07 1040.74 562.914 1073.21 629.84C1085.71 655.605 1097.89 681.529 1110.17 707.399C1111.51 710.208 1112.59 713.138 1112.3 717.585C1107.77 715.184 1103.14 712.939 1098.71 710.357C1064.14 690.196 1028.39 672.733 989.256 663.217C971.47 658.892 953.638 654.699 935.696 651.102C928.918 649.743 924.466 646.704 921.514 640.623C910.165 617.247 898.757 593.899 887.233 570.61C866.817 529.349 846.201 488.187 825.881 446.88C819.378 433.66 813.594 420.087 807.37 406.728C805.912 403.598 804.002 400.679 802.3 397.664C801.302 397.358 800.304 397.053 799.306 396.747C763.783 459.496 728.26 522.245 692.737 584.994C691.655 585.038 690.574 585.081 689.492 585.125C654.094 522.131 618.695 459.137 582.143 394.091C579.094 399.682 577.186 402.879 575.557 406.211C538.592 481.846 501.465 557.403 464.925 633.244C459.472 644.562 452.74 649.921 439.821 651.541C394.841 657.181 352.763 672.344 312.995 694.031C300.561 700.811 288.001 707.364 275.435 713.9C273.037 715.148 270.342 715.826 265.066 717.767C267.72 710.844 269.088 706.506 270.996 702.42C285.854 670.609 300.716 638.8 315.772 607.083C330.954 575.099 346.539 543.305 361.62 511.274C378.489 475.446 394.88 439.394 411.69 403.539C424.218 376.816 437.198 350.305 449.769 323.603C476.672 266.458 503.405 209.233 530.276 152.073C548.116 114.125 566.076 76.2325 583.977 38.3126C588.641 28.4319 593.374 18.582 597.906 8.64097C600.512 2.92651 604.551 0.00915835 610.994 0.0183031C660.044 0.0879311 709.095 0.0829981 758.145 3.23982e-05C764.527 -0.0107612 768.685 2.67513 771.364 8.42208C777.354 21.2694 783.484 34.0527 789.69 46.7974C798.661 65.221 807.75 83.5874 817.033 102.596ZM647.614 328.886C645.553 332.119 643.605 335.431 641.408 338.569C637.182 344.604 637.572 350.138 641.37 356.548C655.199 379.885 668.519 403.523 682.102 427.005C684.548 431.233 687.332 435.265 690.782 440.679C693.542 437.094 695.695 434.812 697.256 432.178C703.721 421.273 710.265 410.401 716.293 399.254C724.245 384.549 730.458 368.708 739.908 355.083C745.657 346.794 743.288 342.395 739.056 335.858C733.972 328.008 729.609 319.665 725.285 311.353C716.04 293.582 707.134 275.634 697.854 257.881C693.957 250.427 689.644 249.868 685.759 256.978C672.932 280.452 660.756 304.282 648.345 327.961C648.345 327.961 648.358 327.947 647.614 328.886Z" fill="url(#paint1_linear_44_31)"/>
<path d="M1167 1139.5L1061 1033.5H1136.5L1204.5 1099.5L1274.5 1033.5H1350L1244 1139.5L1350 1246H1274.5L1204.5 1177.5L1136.5 1246H1059.5L1167 1139.5Z" fill="white" stroke="white"/>
<path d="M78.5 1246H2L209.607 1038.89C211.513 1036.98 213.808 1035.52 216.334 1034.59C220.017 1033.23 224.035 1033.07 227.814 1034.13L228.871 1034.42C232.56 1035.46 235.916 1037.43 238.609 1040.16L442 1246H114L169 1192H315L222 1100.5L78.5 1246Z" fill="white" stroke="white"/>
<path d="M449.5 1247H502V1165.5H681.5C691.327 1165.5 700.98 1162.91 709.49 1158L712.846 1156.06C725.272 1148.89 735.005 1137.84 740.554 1124.6L741.411 1122.56C747.85 1107.2 747.676 1089.87 740.93 1074.65C735.162 1061.63 724.99 1051.07 712.202 1044.82L703.872 1040.74C692.113 1034.99 679.195 1032 666.105 1032H502L449.5 1088H678.835C680.59 1088 682.324 1088.38 683.915 1089.13C692.557 1093.16 693.278 1105.17 685.181 1110.21L684.517 1110.62C682.545 1111.85 680.269 1112.5 677.947 1112.5H449.5V1247Z" fill="white" stroke="white"/>
<path d="M759 1033.5V1085.5H1001.5L1055.5 1033.5H759Z" fill="white" stroke="white"/>
<path d="M759 1246V1114H1055.5V1166.5H812.5V1192H1055.5V1246H759Z" fill="white" stroke="white"/>
<path d="M1153.5 1352.5L1082.5 1282H1127.5L1169 1323.5L1210 1282H1256L1185.5 1352.5V1409.5H1153.5V1352.5Z" fill="white" stroke="white"/>
<path d="M843.053 1408.74L794.551 1358.05H839.611L890.303 1408.74H843.053Z" fill="white" stroke="white"/>
<path d="M708.5 1409.05H741.356V1358.05H853.692C859.842 1358.05 865.883 1356.43 871.209 1353.35L873.309 1352.14C881.086 1347.65 887.177 1340.73 890.65 1332.45L891.186 1331.17C895.216 1321.56 895.107 1310.72 890.885 1301.19C887.275 1293.05 880.909 1286.44 872.906 1282.52L867.693 1279.97C860.334 1276.37 852.25 1274.5 844.057 1274.5H741.356L708.5 1309.55H852.024C853.123 1309.55 854.208 1309.79 855.203 1310.25C860.612 1312.78 861.063 1320.29 855.996 1323.45L855.58 1323.7C854.346 1324.47 852.922 1324.88 851.469 1324.88H708.5V1409.05Z" fill="white" stroke="white"/>
<path d="M522.5 1281.5V1312.58H667.429L699.702 1281.5H522.5Z" fill="white" stroke="white"/>
<path d="M522.5 1408.5V1329.61H699.702V1360.99H554.474V1376.23H699.702V1408.5H522.5Z" fill="white" stroke="white"/>
<path d="M132.5 1283.5V1314.58H277.429L309.702 1283.5H132.5Z" fill="white" stroke="white"/>
<path d="M132.5 1410.5V1331.61H309.702V1362.99H164.474V1378.23H309.702V1410.5H132.5Z" fill="white" stroke="white"/>
<path d="M364 1410.5V1329.5L478 1395L487.382 1399.33C489.766 1400.43 492.36 1401 494.985 1401H497.774C500.8 1401 503.702 1399.8 505.842 1397.66C507.568 1395.93 508.695 1393.7 509.058 1391.28L511.5 1375V1283H478V1357L357.611 1285.75C356.206 1284.92 354.742 1284.19 353.231 1283.57L350.277 1282.35C348.113 1281.46 345.796 1281 343.456 1281H339C336.167 1281 333.5 1282.33 331.8 1284.6C330.632 1286.16 330 1288.05 330 1290V1410.5H364Z" fill="white" stroke="white"/>
<path d="M967 1362.5L999 1331H1080.5V1410H961.5L950.329 1406.81C939.3 1403.66 929.281 1397.69 921.258 1389.49L920.395 1388.61C913.885 1381.96 908.99 1373.9 906.087 1365.06L905.901 1364.49C901.755 1351.87 901.989 1338.21 906.564 1325.74C909.164 1318.64 913.1 1312.12 918.158 1306.51L919.769 1304.72C928.742 1294.78 940.331 1287.55 953.213 1283.87L961.5 1281.5H1080.5L1047.5 1315L982.785 1313.79C972.291 1313.6 961.805 1314.51 951.5 1316.5L944.731 1321.97C940.642 1325.27 937.441 1329.54 935.419 1334.39L935.227 1334.86C932.496 1341.41 932.16 1348.71 934.278 1355.49C936.953 1364.05 943.293 1370.98 951.583 1374.4L954.657 1375.67C959.175 1377.54 964.015 1378.5 968.903 1378.5H1047.5V1362.5H967Z" fill="white" stroke="white"/>
<defs>
<linearGradient id="paint0_linear_44_31" x1="1269.76" y1="964.44" x2="205.115" y2="964.44" gradientUnits="userSpaceOnUse">
<stop stop-color="#51AAFF"/>
<stop offset="0.6" stop-color="#7F74FF"/>
<stop offset="1" stop-color="#9635FF"/>
</linearGradient>
<linearGradient id="paint1_linear_44_31" x1="265.394" y1="-0.030293" x2="1195.29" y2="-0.0303018" gradientUnits="userSpaceOnUse">
<stop stop-color="#943AFE"/>
<stop offset="0.403846" stop-color="#806FFE"/>
<stop offset="1" stop-color="#51AAFF"/>
</linearGradient>
</defs>
</svg>
